# xmcd
#
# Track frame offsets:
#	150
#	14937
#	36120
#	67525
#	82517
#	98827
#	154267
#	168247
#	178962
#	196390
#	217672
#
# Disc length: 3159 seconds
#
# Revision: 1
# Processed by: cddbd v1.5PL3 Copyright (c) Steve Scherf et al.
# Submitted via: audiograbber 1.83.01
#
DISCID=820c550b
DTITLE=Junior Hot Cell and the Yucca Mountain Boys - Sundance
DYEAR=1996
DGENRE=Blue Grass
TTITLE0=Bluegrass Engineer
TTITLE1=Banish Misfortune/Irish Spring
TTITLE2=Take Me Back/Forked Deer
TTITLE3=Blood Red Wine
TTITLE4=Yellow Jassamine
TTITLE5=The Tribal Suite
TTITLE6=The Way She Said My Name
TTITLE7=The End of the Tape Reel
TTITLE8=Destiny
TTITLE9=Devil's Gate/Nye County Breakdown
TTITLE10=From Clare to Here
EXTD=
EXTT0=
EXTT1=
EXTT2=
EXTT3=
EXTT4=
EXTT5=
EXTT6=
EXTT7=
EXTT8=
EXTT9=
EXTT10=
PLAYORDER=
